<svg width="207" height="71" viewBox="0 0 207 71" fill="none" xmlns="http://www.w3.org/2000/svg">
<path d="M20.0801 70H5.82129L5.91211 60.1914H20.0801C23.9248 60.1914 27.1489 59.3438 29.7524 57.6484C32.356 55.9229 34.3237 53.4556 35.6558 50.2466C36.9878 47.0073 37.6538 43.1323 37.6538 38.6216V35.2158C37.6538 31.7344 37.2754 28.6616 36.5186 25.9976C35.7617 23.3335 34.6416 21.0933 33.1582 19.2769C31.7051 17.4604 29.9038 16.083 27.7544 15.1445C25.605 14.2061 23.1377 13.7368 20.3525 13.7368H5.54883V3.88281H20.3525C24.7725 3.88281 28.7988 4.62451 32.4316 6.10791C36.0947 7.59131 39.2583 9.72559 41.9224 12.5107C44.6167 15.2656 46.6753 18.5654 48.0981 22.4102C49.5513 26.2549 50.2778 30.5537 50.2778 35.3066V38.6216C50.2778 43.3442 49.5513 47.6431 48.0981 51.5181C46.6753 55.3628 44.6167 58.6626 41.9224 61.4175C39.2583 64.1724 36.0796 66.2915 32.3862 67.7749C28.6929 69.2583 24.5908 70 20.0801 70ZM12.8145 3.88281V70H0.32666V3.88281H12.8145ZM82.0649 70.9082C78.3413 70.9082 74.9961 70.3027 72.0293 69.0918C69.0625 67.8809 66.5347 66.2007 64.4458 64.0513C62.3872 61.8716 60.7979 59.3438 59.6777 56.4678C58.5879 53.5615 58.043 50.4434 58.043 47.1133V45.2969C58.043 41.5127 58.5879 38.0767 59.6777 34.9888C60.7676 31.8706 62.3115 29.1914 64.3096 26.9512C66.3076 24.7109 68.6992 22.9854 71.4844 21.7744C74.2695 20.5635 77.3423 19.958 80.7026 19.958C84.1841 19.958 87.2568 20.5483 89.9209 21.729C92.585 22.8794 94.8101 24.5142 96.5962 26.6333C98.3823 28.7524 99.7295 31.2954 100.638 34.2622C101.546 37.1987 102 40.4531 102 44.0254V49.0659H63.4922V40.8013H90.1934V39.8931C90.1328 37.9858 89.7695 36.2451 89.1035 34.6709C88.4375 33.0664 87.4082 31.7949 86.0156 30.8564C84.623 29.8877 82.8218 29.4033 80.6118 29.4033C78.8257 29.4033 77.2666 29.7969 75.9346 30.584C74.6328 31.3408 73.543 32.4307 72.665 33.8535C71.8174 35.2461 71.1816 36.9111 70.7578 38.8486C70.334 40.7861 70.1221 42.9355 70.1221 45.2969V47.1133C70.1221 49.1719 70.3945 51.0791 70.9395 52.835C71.5146 54.5908 72.3472 56.1196 73.437 57.4214C74.5571 58.6929 75.8892 59.6919 77.4331 60.4185C79.0073 61.1147 80.7935 61.4629 82.7915 61.4629C85.3042 61.4629 87.5747 60.9785 89.603 60.0098C91.6616 59.0107 93.4478 57.5425 94.9614 55.605L101.001 61.8716C99.9717 63.3853 98.5791 64.8384 96.8232 66.231C95.0977 67.6235 93.0088 68.7588 90.5566 69.6367C88.1045 70.4844 85.2739 70.9082 82.0649 70.9082ZM122.752 0.25V70H110.719V0.25H122.752ZM157.446 20.8662V29.4941H129.292V20.8662H157.446ZM136.83 8.78711H148.863V55.832C148.863 57.2852 149.06 58.4053 149.454 59.1924C149.847 59.9795 150.438 60.5093 151.225 60.7817C152.012 61.0542 152.95 61.1904 154.04 61.1904C154.827 61.1904 155.554 61.145 156.22 61.0542C156.886 60.9634 157.446 60.8726 157.9 60.7817L157.945 69.7729C156.946 70.106 155.811 70.3784 154.54 70.5903C153.298 70.8022 151.891 70.9082 150.316 70.9082C147.622 70.9082 145.261 70.4541 143.232 69.5459C141.204 68.6074 139.63 67.1089 138.51 65.0503C137.39 62.9614 136.83 60.2065 136.83 56.7856V8.78711ZM192.502 59.5557V36.896C192.502 35.231 192.215 33.793 191.64 32.582C191.064 31.3711 190.187 30.4326 189.006 29.7666C187.825 29.1006 186.327 28.7676 184.51 28.7676C182.906 28.7676 181.498 29.04 180.287 29.585C179.106 30.1299 178.198 30.9019 177.562 31.9009C176.927 32.8696 176.609 33.9897 176.609 35.2612H164.575C164.575 33.2329 165.06 31.3105 166.028 29.4941C166.997 27.6475 168.375 26.0127 170.161 24.5898C171.977 23.1367 174.142 22.0015 176.654 21.1841C179.197 20.3667 182.043 19.958 185.191 19.958C188.915 19.958 192.23 20.5938 195.136 21.8652C198.073 23.1064 200.374 24.9834 202.039 27.4961C203.734 30.0088 204.582 33.1724 204.582 36.9868V58.4204C204.582 60.8726 204.733 62.9766 205.036 64.7324C205.369 66.458 205.853 67.9565 206.489 69.228V70H194.273C193.698 68.7588 193.259 67.1846 192.957 65.2773C192.654 63.3398 192.502 61.4326 192.502 59.5557ZM194.183 40.0747L194.273 47.2041H186.69C184.813 47.2041 183.163 47.4009 181.74 47.7944C180.317 48.1577 179.152 48.7026 178.244 49.4292C177.335 50.1255 176.654 50.9731 176.2 51.9722C175.746 52.9409 175.519 54.0459 175.519 55.2871C175.519 56.498 175.792 57.5879 176.336 58.5566C176.912 59.5254 177.729 60.2974 178.789 60.8726C179.878 61.4175 181.15 61.6899 182.603 61.6899C184.722 61.6899 186.569 61.2661 188.143 60.4185C189.717 59.5405 190.943 58.481 191.821 57.2397C192.699 55.9985 193.168 54.8179 193.229 53.6978L196.68 58.8745C196.256 60.1157 195.621 61.4326 194.773 62.8252C193.925 64.2178 192.835 65.5195 191.503 66.7305C190.171 67.9414 188.567 68.9404 186.69 69.7275C184.813 70.5146 182.633 70.9082 180.151 70.9082C176.972 70.9082 174.126 70.2725 171.614 69.001C169.101 67.7295 167.118 65.9888 165.665 63.7788C164.212 61.5688 163.485 59.0562 163.485 56.2407C163.485 53.6372 163.97 51.3364 164.938 49.3384C165.907 47.3403 167.345 45.6602 169.252 44.2979C171.16 42.9053 173.521 41.8608 176.336 41.1646C179.182 40.438 182.437 40.0747 186.1 40.0747H194.183Z" fill="white"/>
</svg>
